<svg width="328" height="331" viewBox="0 0 328 331" fill="none" xmlns="http://www.w3.org/2000/svg">
<path d="M162.6 22.0833L210.933 65.4667H263.133L263.133 123.867L308.117 165.95L266.733 207.283L266.733 269.933L204.608 269.933L162.6 313.467L133.925 296.8L105.25 281.867L9.46664 317.567L59.0974 207.283L22.0001 170.25L66.8667 135.667L59.0974 60.6L114.267 73.0667L162.6 22.0833ZM162.6 0.199951L109.6 57L45.9333 48.5333L54.1501 125.084L5.81686 173.417L45.9333 213.533L5.81686 308.6C3.87243 312.211 0.0999888 319.522 0.933319 323C1.76665 326.478 1.77785 322.839 4.00006 325.05C6.22228 327.272 2.35021 326.033 5.81686 326.867C9.28352 327.7 13.7946 324.944 17.4168 323L105.25 292.25L162.6 330.2L210.933 281.867H279.267V213.533L327.6 165.2L279.267 116.867V48.5333H210.933L162.6 0.199951Z" fill="#333333"/>
</svg>
