<svg width="320" height="323" viewBox="0 0 320 323" fill="none" xmlns="http://www.w3.org/2000/svg">
<path d="M158.335 22.2062L205.46 64.5049L256.355 64.5049L256.355 121.445L300.214 162.476L259.865 202.776L259.865 263.86L199.293 263.86L158.335 306.305L130.377 290.055L102.418 275.495L9.02989 310.303L57.4199 202.776L21.25 166.669L64.9949 132.95L57.4199 59.76L111.21 71.9149L158.335 22.2062ZM158.335 0.86991L106.66 56.25L44.5849 47.9949L52.5963 122.631L5.47135 169.756L44.5849 208.87L5.47135 301.56C3.57552 305.081 -0.102604 312.209 0.709893 315.6C1.52239 318.991 1.53331 315.443 3.69997 317.599C5.86663 319.765 2.09136 318.557 5.47135 319.37C8.85134 320.182 13.2497 317.496 16.7813 315.6L102.418 285.619L158.335 322.62L205.46 275.495H272.085V208.87L319.21 161.745L272.085 114.62V47.9949H205.46L158.335 0.86991Z" fill="#333333"/>
</svg>
